<svg width="152" height="156" viewBox="0 0 152 156" fill="none" xmlns="http://www.w3.org/2000/svg">
<path d="M97.2922 161.498C86.703 100.751 33.8998 55.7983 -27.7787 55.0258C-34.6038 54.94 -40.235 49.6629 -40.7793 42.8589L-43.0056 15.1016C-43.6212 7.40347 -37.5386 0.841198 -29.8117 0.815523C-10.1131 0.752939 9.28526 3.8471 28.0252 10.0598C50.4768 17.5028 71.026 29.077 89.1051 44.4667C107.184 59.8564 121.889 78.2939 132.813 99.2643C141.931 116.772 148.08 135.418 151.155 154.87C152.36 162.498 146.848 169.549 139.147 170.168L111.38 172.394C104.573 172.938 98.4616 168.219 97.2922 161.498Z" fill="#1F265E"/>
</svg>
