<svg width="156" height="115" viewBox="0 0 156 115" fill="none" xmlns="http://www.w3.org/2000/svg">
<path d="M50.6613 6.46419C82.1024 59.5093 147.414 82.818 205.359 61.6701C211.771 59.3303 218.907 62.2678 221.829 68.4367L233.753 93.601C237.058 100.581 233.698 108.873 226.482 111.637C208.085 118.681 188.85 122.666 169.125 123.502C145.493 124.503 122.175 120.967 99.8138 112.988C77.4524 105.009 57.1657 92.9836 39.516 77.2492C24.7821 64.1122 12.4206 48.8584 2.64837 31.7602C-1.18287 25.055 1.4711 16.5081 8.45187 13.1984L33.6254 1.2714C39.7966 -1.65084 47.1846 0.594321 50.6613 6.46419Z" fill="#1F265E"/>
</svg>
